<svg width="30" height="30" viewBox="0 0 30 30" fill="none" xmlns="http://www.w3.org/2000/svg">
<path d="M0.750442 3.39109L2.88577 5.5263C4.87158 2.9267 7.70162 1.10069 10.8887 0.362625C14.0757 -0.375441 17.4204 0.0206125 20.3469 1.48261C23.2734 2.9446 25.5987 5.38106 26.9224 8.37254C28.246 11.364 28.4853 14.7234 27.5991 17.8723C26.7128 21.0212 24.7564 23.7626 22.0666 25.6246C19.3769 27.4866 16.1221 28.3527 12.8626 28.0738C9.60312 27.7949 6.54283 26.3884 4.20858 24.0965C1.87433 21.8046 0.41217 18.7706 0.0738146 15.517C0.037924 15.169 0.141727 14.8211 0.362387 14.5497C0.583048 14.2783 0.902491 14.1056 1.25044 14.0698C1.59839 14.0339 1.94635 14.1377 2.21777 14.3583C2.48919 14.579 2.66183 14.8984 2.69772 15.2463C2.9748 17.9042 4.17499 20.3808 6.08947 22.2452C8.00395 24.1096 10.5115 25.2439 13.1759 25.4506C15.8403 25.6574 18.4929 24.9235 20.6721 23.3767C22.8513 21.8299 24.4192 19.5681 25.103 16.9849C25.7868 14.4016 25.5432 11.6603 24.4147 9.23805C23.2861 6.81577 21.344 4.8658 18.9262 3.72741C16.5085 2.58902 13.7681 2.33426 11.1818 3.00747C8.59564 3.68067 6.32731 5.23923 4.77154 7.41196L7.15819 9.79847C7.21979 9.85991 7.26177 9.93827 7.27879 10.0236C7.2958 10.1089 7.2871 10.1974 7.25378 10.2778C7.22046 10.3581 7.16403 10.4268 7.09163 10.4751C7.01923 10.5233 6.93413 10.549 6.84712 10.5489H0.439369C0.322841 10.5489 0.211086 10.5026 0.128689 10.4202C0.0462912 10.3378 7.03561e-07 10.226 7.03561e-07 10.1095V3.70215C-0.000154978 3.61514 0.0255291 3.53004 0.0737968 3.45765C0.122065 3.38526 0.190742 3.32882 0.271123 3.29551C0.351504 3.26219 0.439969 3.25349 0.525301 3.2705C0.610634 3.28752 0.688992 3.32949 0.750442 3.39109ZM13.6204 7.03412C13.97 7.03412 14.3053 7.17299 14.5525 7.42016C14.7996 7.66734 14.9385 8.00259 14.9385 8.35215V13.6102L18.5027 15.0372C18.8168 15.1741 19.0652 15.4279 19.1953 15.7449C19.3254 16.0618 19.327 16.417 19.1997 16.7351C19.0724 17.0532 18.8263 17.3092 18.5134 17.4489C18.2006 17.5886 17.8456 17.601 17.5238 17.4834L13.1301 15.7261C12.8859 15.628 12.6766 15.4591 12.5291 15.2411C12.3816 15.0232 12.3026 14.7661 12.3023 14.5029V8.35215C12.3023 8.00259 12.4412 7.66734 12.6884 7.42016C12.9356 7.17299 13.2708 7.03412 13.6204 7.03412Z" fill="black"/>
</svg>
