<svg width="27" height="26" viewBox="0 0 27 26" fill="none" xmlns="http://www.w3.org/2000/svg">
<path d="M7.3 25.3333C5.27778 25.3333 3.55556 24.6222 2.13333 23.2C0.711111 21.7778 0 20.0556 0 18.0333C0 16.1222 0.639111 14.472 1.91733 13.0827C3.19556 11.6933 4.78978 10.9213 6.7 10.7667L2.3 1.93333C2.07778 1.48889 2.09467 1.05556 2.35067 0.633333C2.60667 0.211111 2.98978 0 3.5 0H9.03333C9.54444 0 10.0058 0.133333 10.4173 0.4C10.8289 0.666667 11.1564 1.02222 11.4 1.46667L13.3333 5.33333L15.2667 1.46667C15.5111 1.02222 15.8391 0.666667 16.2507 0.4C16.6622 0.133333 17.1231 0 17.6333 0H23.1667C23.6778 0 24.0613 0.211111 24.3173 0.633333C24.5733 1.05556 24.5898 1.48889 24.3667 1.93333L20 10.7C21.8889 10.8778 23.4724 11.6613 24.7507 13.0507C26.0289 14.44 26.6676 16.0898 26.6667 18C26.6667 20.0444 25.9556 21.7778 24.5333 23.2C23.1111 24.6222 21.3778 25.3333 19.3333 25.3333C19.1333 25.3333 18.928 25.328 18.7173 25.3173C18.5067 25.3067 18.3009 25.2787 18.1 25.2333C19.3222 24.4333 20.2778 23.3947 20.9667 22.1173C21.6556 20.84 22 19.4676 22 18C22 15.5778 21.1609 13.528 19.4827 11.8507C17.8044 10.1733 15.7547 9.33422 13.3333 9.33333C10.9111 9.33333 8.86133 10.1724 7.184 11.8507C5.50667 13.5289 4.66756 15.5787 4.66667 18C4.66667 19.5111 4.97778 20.9333 5.6 22.2667C6.22222 23.6 7.2 24.5889 8.53333 25.2333C8.33333 25.2778 8.128 25.3058 7.91733 25.3173C7.70667 25.3289 7.50089 25.3342 7.3 25.3333ZM13.3333 24C11.6667 24 10.2502 23.4169 9.084 22.2507C7.91778 21.0844 7.33422 19.6676 7.33333 18C7.33333 16.3333 7.91689 14.9169 9.084 13.7507C10.2511 12.5844 11.6676 12.0009 13.3333 12C15 12 16.4169 12.5836 17.584 13.7507C18.7511 14.9178 19.3342 16.3342 19.3333 18C19.3333 19.6667 18.7502 21.0836 17.584 22.2507C16.4178 23.4178 15.0009 24.0009 13.3333 24ZM13.3333 19.8L14.9667 21.0333C15.1 21.1444 15.2333 21.1502 15.3667 21.0507C15.5 20.9511 15.5444 20.8231 15.5 20.6667L14.8667 18.6333L16.5 17.4667C16.6333 17.3556 16.6778 17.2276 16.6333 17.0827C16.5889 16.9378 16.4778 16.8658 16.3 16.8667H14.3L13.6667 14.7C13.6222 14.5444 13.5111 14.4667 13.3333 14.4667C13.1556 14.4667 13.0444 14.5444 13 14.7L12.3667 16.8667H10.3667C10.1889 16.8667 10.0778 16.9391 10.0333 17.084C9.98889 17.2289 10.0333 17.3564 10.1667 17.4667L11.8 18.6333L11.1667 20.6667C11.1222 20.8222 11.1667 20.9502 11.3 21.0507C11.4333 21.1511 11.5667 21.1453 11.7 21.0333L13.3333 19.8Z" fill="black"/>
</svg>
