<svg width="15" height="14" viewBox="0 0 15 14" fill="none" xmlns="http://www.w3.org/2000/svg">
<path fill-rule="evenodd" clip-rule="evenodd" d="M9.98973 2.03514V3.59514L10.9897 2.60514V0.765137L10.4897 0.265137H1.48973L0.989727 0.765137V1.25114L0.969727 1.26514V11.5551L1.32973 12.0151L6.32973 13.7351L6.96973 13.2651V12.2651H10.4897L10.9897 11.7651V9.95514L9.98973 8.95514V11.2651H6.96973V2.97514L6.63973 2.51514L3.00573 1.26514H9.98973V2.03514ZM5.96973 12.5451L1.96973 11.2051V1.98514L5.96973 3.32514V12.5451ZM12.4897 6.74514H7.51973V5.74514H12.4497L10.8497 4.14514L11.5597 3.44514L14.0297 5.90514V6.61514L11.5397 9.09514L10.8397 8.39514L12.4897 6.74514Z" fill="#FF3C3C"/>
</svg>
