<svg width="42" height="42" viewBox="0 0 42 42" fill="none" xmlns="http://www.w3.org/2000/svg">
<path fill-rule="evenodd" clip-rule="evenodd" d="M0.885435 0.67706C1.19641 0.40692 1.58049 0.235031 1.98913 0.183117C2.39777 0.131203 2.81262 0.201594 3.18127 0.385394L40.6813 19.1354C41.0279 19.3082 41.3196 19.5742 41.5234 19.9036C41.7273 20.2329 41.8353 20.6126 41.8353 21C41.8353 21.3873 41.7273 21.767 41.5234 22.0964C41.3196 22.4258 41.0279 22.6918 40.6813 22.8646L3.18127 41.6146C2.81265 41.799 2.39761 41.87 1.98865 41.8184C1.5797 41.7669 1.19522 41.5953 0.88386 41.3252C0.572501 41.0551 0.34826 40.6987 0.239511 40.3011C0.130763 39.9035 0.142395 39.4826 0.272936 39.0916L5.61043 23.0833H16.8334C17.3859 23.0833 17.9158 22.8638 18.3065 22.4731C18.6972 22.0824 18.9167 21.5525 18.9167 21C18.9167 20.4474 18.6972 19.9175 18.3065 19.5268C17.9158 19.1361 17.3859 18.9166 16.8334 18.9166H5.61043L0.270852 2.90831C0.140984 2.5175 0.129855 2.09697 0.238871 1.69984C0.347888 1.30271 0.574242 0.946793 0.885435 0.67706Z" fill="#0FA958"/>
</svg>
